<mxfile host="app.diagrams.net" agent="Mozilla/5.0 (X11; Linux x86_64) AppleWebKit/537.36 (KHTML, like Gecko) Chrome/130.0.0.0 Safari/537.36" version="26.1.1">
  <diagram name="Pàgina-1" id="mhbHxmUa4zc_a_H4eHv1">
    <mxGraphModel dx="1430" dy="1937" grid="1" gridSize="10" guides="1" tooltips="1" connect="1" arrows="1" fold="1" page="1" pageScale="1" pageWidth="827" pageHeight="1169" math="0" shadow="0">
      <root>
        <mxCell id="0" />
        <mxCell id="1" parent="0" />
        <mxCell id="gwep535RiZfCvjgYOcmj-3" value="&lt;i&gt;Servei d&#39;allotjament de repositoris&lt;/i&gt;" style="rounded=1;whiteSpace=wrap;html=1;verticalAlign=bottom;labelPosition=center;verticalLabelPosition=top;align=center;textDirection=ltr;labelBackgroundColor=none;spacingTop=0;spacing=2;fontSize=16;fillColor=#dae8fc;strokeColor=#6c8ebf;" parent="1" vertex="1">
          <mxGeometry x="260" y="-140" width="250" height="300.5" as="geometry" />
        </mxCell>
        <mxCell id="6d2bNqNMUXDxkiYPfy11-1" value="&lt;i&gt;Local - Entorn de desenvolupament&lt;/i&gt;" style="rounded=1;whiteSpace=wrap;html=1;verticalAlign=bottom;labelPosition=center;verticalLabelPosition=top;align=center;textDirection=ltr;labelBackgroundColor=none;spacingTop=0;spacing=2;fontSize=16;fillColor=#dae8fc;strokeColor=#6c8ebf;" parent="1" vertex="1">
          <mxGeometry x="160" y="240" width="440" height="250" as="geometry" />
        </mxCell>
        <mxCell id="6d2bNqNMUXDxkiYPfy11-4" value="" style="sketch=0;aspect=fixed;pointerEvents=1;shadow=0;dashed=0;html=1;strokeColor=none;labelPosition=center;verticalLabelPosition=bottom;verticalAlign=top;align=center;fillColor=#00188D;shape=mxgraph.mscae.enterprise.internet" parent="1" vertex="1">
          <mxGeometry x="190" y="19.75" width="50" height="31" as="geometry" />
        </mxCell>
        <mxCell id="6d2bNqNMUXDxkiYPfy11-5" value="" style="sketch=0;aspect=fixed;pointerEvents=1;shadow=0;dashed=0;html=1;strokeColor=none;labelPosition=center;verticalLabelPosition=bottom;verticalAlign=top;align=center;fillColor=#00188D;shape=mxgraph.azure.computer" parent="1" vertex="1">
          <mxGeometry x="90" y="298.13" width="50" height="45" as="geometry" />
        </mxCell>
        <mxCell id="gwep535RiZfCvjgYOcmj-7" value="&lt;font style=&quot;font-size: 17px; color: rgb(77, 153, 0);&quot;&gt;&lt;b style=&quot;&quot;&gt;Pull Request&lt;/b&gt;&lt;/font&gt;" style="edgeStyle=orthogonalEdgeStyle;rounded=0;orthogonalLoop=1;jettySize=auto;html=1;exitX=0.25;exitY=0;exitDx=0;exitDy=0;labelBackgroundColor=none;align=left;entryX=0.25;entryY=1;entryDx=0;entryDy=0;" parent="1" edge="1">
          <mxGeometry x="-0.25" y="110" relative="1" as="geometry">
            <mxPoint as="offset" />
            <mxPoint x="380" y="52.00000000000023" as="sourcePoint" />
            <mxPoint x="380" y="-27.999999999999773" as="targetPoint" />
          </mxGeometry>
        </mxCell>
        <mxCell id="6d2bNqNMUXDxkiYPfy11-6" value="&lt;b style=&quot;font-size: 18px;&quot;&gt;Repositori Remot&lt;/b&gt;&lt;div&gt;&lt;span style=&quot;font-size: 18px;&quot;&gt;&lt;i style=&quot;&quot;&gt;Fork&lt;/i&gt;&lt;/span&gt;&lt;/div&gt;" style="rounded=1;whiteSpace=wrap;html=1;fontSize=18;fillColor=#d5e8d4;strokeColor=#82b366;" parent="1" vertex="1">
          <mxGeometry x="350" y="50" width="120" height="90" as="geometry" />
        </mxCell>
        <mxCell id="gwep535RiZfCvjgYOcmj-5" style="edgeStyle=orthogonalEdgeStyle;rounded=0;orthogonalLoop=1;jettySize=auto;html=1;exitX=0.5;exitY=0;exitDx=0;exitDy=0;entryX=1;entryY=0.5;entryDx=0;entryDy=0;" parent="1" source="6d2bNqNMUXDxkiYPfy11-9" target="6d2bNqNMUXDxkiYPfy11-6" edge="1">
          <mxGeometry relative="1" as="geometry" />
        </mxCell>
        <mxCell id="6d2bNqNMUXDxkiYPfy11-9" value="&lt;b&gt;Repositori local&lt;/b&gt;&lt;i&gt;&lt;br&gt;Local Repository&lt;/i&gt;" style="rounded=1;whiteSpace=wrap;html=1;fontSize=20;fillColor=#d5e8d4;strokeColor=#82b366;" parent="1" vertex="1">
          <mxGeometry x="460" y="260" width="120" height="120" as="geometry" />
        </mxCell>
        <mxCell id="6d2bNqNMUXDxkiYPfy11-10" value="&lt;b style=&quot;border-color: var(--border-color); font-size: 18px;&quot;&gt;Àrea de preparació&lt;/b&gt;&lt;br style=&quot;border-color: var(--border-color); font-size: 18px;&quot;&gt;&lt;i style=&quot;border-color: var(--border-color); font-size: 18px;&quot;&gt;Staging Area&lt;/i&gt;" style="rounded=1;whiteSpace=wrap;html=1;fontSize=20;fillColor=#d5e8d4;strokeColor=#82b366;" parent="1" vertex="1">
          <mxGeometry x="320" y="260.63" width="120" height="120" as="geometry" />
        </mxCell>
        <mxCell id="6d2bNqNMUXDxkiYPfy11-11" value="&lt;b style=&quot;border-color: var(--border-color); font-size: 18px;&quot;&gt;Directori de treball&lt;/b&gt;&lt;br style=&quot;border-color: var(--border-color); font-size: 18px;&quot;&gt;&lt;i style=&quot;border-color: var(--border-color); font-size: 18px;&quot;&gt;Working directory&lt;/i&gt;" style="rounded=1;whiteSpace=wrap;html=1;fontSize=20;fillColor=#d5e8d4;strokeColor=#82b366;" parent="1" vertex="1">
          <mxGeometry x="180" y="260.63" width="120" height="120" as="geometry" />
        </mxCell>
        <mxCell id="6d2bNqNMUXDxkiYPfy11-12" value="" style="shape=image;imageAspect=0;aspect=fixed;verticalLabelPosition=bottom;verticalAlign=top;image=https://cdn0.iconfinder.com/data/icons/folder-line/512/folder_tree-512.png;" parent="1" vertex="1">
          <mxGeometry x="205" y="400" width="70" height="70" as="geometry" />
        </mxCell>
        <mxCell id="6d2bNqNMUXDxkiYPfy11-13" value="" style="shape=image;imageAspect=0;aspect=fixed;verticalLabelPosition=bottom;verticalAlign=top;image=https://cdn.icon-icons.com/icons2/2718/PNG/512/git_branch_icon_174485.png;" parent="1" vertex="1">
          <mxGeometry x="484.5" y="394" width="71" height="71" as="geometry" />
        </mxCell>
        <mxCell id="gwep535RiZfCvjgYOcmj-1" value="" style="shape=image;html=1;verticalAlign=top;verticalLabelPosition=bottom;labelBackgroundColor=#ffffff;imageAspect=0;aspect=fixed;image=https://cdn0.iconfinder.com/data/icons/phosphor-regular-vol-3/256/git-fork-128.png" parent="1" vertex="1">
          <mxGeometry x="270" y="70" width="70" height="70" as="geometry" />
        </mxCell>
        <mxCell id="gwep535RiZfCvjgYOcmj-2" value="&lt;b style=&quot;font-size: 18px;&quot;&gt;Repositori Remot&lt;/b&gt;&lt;div&gt;&lt;span style=&quot;font-size: 18px;&quot;&gt;&lt;b style=&quot;&quot;&gt;Principal&lt;/b&gt;&lt;/span&gt;&lt;/div&gt;" style="rounded=1;whiteSpace=wrap;html=1;fontSize=18;fillColor=#d5e8d4;strokeColor=#82b366;" parent="1" vertex="1">
          <mxGeometry x="350" y="-120" width="120" height="90" as="geometry" />
        </mxCell>
        <mxCell id="EpzETz-oFJ-H0pEoeQfu-5" value="" style="shape=image;editableCssRules=.*;imageAspect=0;aspect=fixed;verticalLabelPosition=bottom;verticalAlign=top;image=data:image/svg+xml,PHN2ZyB4bWxuczp4bGluaz0iaHR0cDovL3d3dy53My5vcmcvMTk5OS94bGluayIgeG1sbnM9Imh0dHA6Ly93d3cudzMub3JnLzIwMDAvc3ZnIiB2aWV3Qm94PSIyLjk5OTk4NzEyNTM5NjcyODUgMS43NSAxOC4wMDAwMTMzNTE0NDA0MyAxOS4yNSIgdmVyc2lvbj0iMS4xIiB3aWR0aD0iMTguMDAwMDEzMzUxNDQwNDMiIGhlaWdodD0iMTkuMjUiIHN0eWxlPSJjb2xvci1zY2hlbWU6IGxpZ2h0IGRhcms7Ij48c3R5bGUgdHlwZT0idGV4dC9jc3MiPi5zdDAgeyBmaWxsOiBsaWdodC1kYXJrKHJnYig3NywgMTUzLCAwKSwgcmdiKDAsIDAsIDApKTsgfSA8L3N0eWxlPjxwYXRoIGQ9Ik02IDNhMyAzIDAgMCAxIDMgM2MwIDEuMzEtLjgzIDIuNDItMiAyLjgzdjYuMzRjMS4xNy40MSAyIDEuNTIgMiAyLjgzYTMgMyAwIDAgMS0zIDMgMyAzIDAgMCAxLTMtM2MwLTEuMzEuODMtMi40MiAyLTIuODNWOC44M0EyLjk5IDIuOTkgMCAwIDEgMyA2YTMgMyAwIDAgMSAzLTNtMCAyYTEgMSAwIDAgMC0xIDEgMSAxIDAgMCAwIDEgMSAxIDEgMCAwIDAgMS0xIDEgMSAwIDAgMC0xLTFtMCAxMmExIDEgMCAwIDAtMSAxIDEgMSAwIDAgMCAxIDEgMSAxIDAgMCAwIDEtMSAxIDEgMCAwIDAtMS0xbTE1IDFhMyAzIDAgMCAxLTMgMyAzIDMgMCAwIDEtMy0zYzAtMS4zMS44My0yLjQyIDItMi44M1Y3aC0ydjMuMjVMMTAuNzUgNiAxNSAxLjc1VjVoMmEyIDIgMCAwIDEgMiAydjguMTdjMS4xNy40MSAyIDEuNTIgMiAyLjgzbS0zLTFhMSAxIDAgMCAwLTEgMSAxIDEgMCAwIDAgMSAxIDEgMSAwIDAgMCAxLTEgMSAxIDAgMCAwLTEtMSIgY2xhc3M9InN0MCIvPjwvc3ZnPg==;" vertex="1" parent="1">
          <mxGeometry x="314" y="-12" width="18" height="19" as="geometry" />
        </mxCell>
        <mxCell id="EpzETz-oFJ-H0pEoeQfu-8" value="&lt;font style=&quot;font-size: 17px; color: rgb(77, 153, 0);&quot;&gt;&lt;b style=&quot;&quot;&gt;Sync&lt;/b&gt;&lt;/font&gt;" style="edgeStyle=orthogonalEdgeStyle;rounded=0;orthogonalLoop=1;jettySize=auto;html=1;exitX=0.75;exitY=1;exitDx=0;exitDy=0;labelBackgroundColor=none;align=left;entryX=0.75;entryY=0;entryDx=0;entryDy=0;" edge="1" parent="1" source="gwep535RiZfCvjgYOcmj-2" target="6d2bNqNMUXDxkiYPfy11-6">
          <mxGeometry x="0.25" y="10" relative="1" as="geometry">
            <mxPoint as="offset" />
            <mxPoint x="390" y="60" as="sourcePoint" />
            <mxPoint x="390" y="-20" as="targetPoint" />
          </mxGeometry>
        </mxCell>
        <mxCell id="EpzETz-oFJ-H0pEoeQfu-10" value="" style="shape=image;editableCssRules=.*;imageAspect=0;aspect=fixed;verticalLabelPosition=bottom;verticalAlign=top;image=data:image/svg+xml,PHN2ZyB4bWxuczp4bGluaz0iaHR0cDovL3d3dy53My5vcmcvMTk5OS94bGluayIgeG1sbnM9Imh0dHA6Ly93d3cudzMub3JnLzIwMDAvc3ZnIiB2aWV3Qm94PSIxIDAuOTk5OTk5ODgwNzkwNzEwNCAyMiAyMiIgdmVyc2lvbj0iMS4xIiB3aWR0aD0iMjIiIGhlaWdodD0iMjIiIHN0eWxlPSJjb2xvci1zY2hlbWU6IGxpZ2h0IGRhcms7Ij48c3R5bGUgdHlwZT0idGV4dC9jc3MiPi5zdDAgeyBmaWxsOiBsaWdodC1kYXJrKHJnYig3NywgMTUzLCAwKSwgcmdiKDAsIDAsIDApKTsgfSA8L3N0eWxlPjxwYXRoIGQ9Ik0zLjM4IDhBOS41IDkuNSAwIDAgMSAxMiAyLjVhOS41IDkuNSAwIDAgMSA5LjIxNSA3LjE4Mi43NS43NSAwIDEgMCAxLjQ1Ni0uMzY0QzIxLjQ3MyA0LjUzOSAxNy4xNSAxIDEyIDFhMTEgMTEgMCAwIDAtOS41IDUuNDUyVjQuNzVhLjc1Ljc1IDAgMCAwLTEuNSAwVjguNWExIDEgMCAwIDAgMSAxaDMuNzVhLjc1Ljc1IDAgMCAwIDAtMS41em0tLjU5NSA2LjMxOGEuNzUuNzUgMCAwIDAtMS40NTUuMzY0QzIuNTI3IDE5LjQ2MSA2Ljg1IDIzIDEyIDIzYzQuMDUyIDAgNy41OTItMi4xOTEgOS41LTUuNDUxdjEuNzAxYS43NS43NSAwIDAgMCAxLjUgMFYxNS41YTEgMSAwIDAgMC0xLTFoLTMuNzVhLjc1Ljc1IDAgMCAwIDAgMS41aDIuMzdBOS41IDkuNSAwIDAgMSAxMiAyMS41Yy00LjQ0NiAwLTguMTgxLTMuMDU1LTkuMjE1LTcuMTgyIiBjbGFzcz0ic3QwIi8+PC9zdmc+;" vertex="1" parent="1">
          <mxGeometry x="460" y="-13.5" width="22" height="22" as="geometry" />
        </mxCell>
      </root>
    </mxGraphModel>
  </diagram>
</mxfile>
